<?xml version="1.0" standalone="no"?>
<!DOCTYPE svg PUBLIC "-//W3C//DTD SVG 1.1//EN" "http://www.w3.org/Graphics/SVG/1.1/DTD/svg11.dtd" >
<svg xmlns="http://www.w3.org/2000/svg">
<metadata></metadata>
<defs>
<font id="cassannet_boldbold" horiz-adv-x="929" >
<font-face units-per-em="2048" ascent="1536" descent="-512" />
<missing-glyph horiz-adv-x="514" />
<glyph unicode="&#x2e;&#x2e;&#x2e;" horiz-adv-x="1626" d="M86 150q0 73 50.5 125.5t123.5 52.5q70 0 122 -53t52 -125t-51.5 -124.5t-122.5 -52.5q-73 0 -123.5 52t-50.5 125zM639 150q0 73 50.5 125.5t123.5 52.5q70 0 122 -53t52 -125t-51.5 -124.5t-122.5 -52.5q-73 0 -123.5 52t-50.5 125zM1192 150q0 73 50.5 125.5 t123.5 52.5q70 0 122 -53t52 -125t-51.5 -124.5t-122.5 -52.5q-73 0 -123.5 52t-50.5 125z" />
<glyph unicode="&#xfb01;" horiz-adv-x="1271" d="M102 0v963h615v-263h-332v-102h305v-246h-305v-352h-283zM887 0v963h282v-963h-282z" />
<glyph unicode="&#xfb02;" horiz-adv-x="1579" d="M102 0v963h615v-263h-332v-102h305v-246h-305v-352h-283zM887 0v963h282v-701h351v-262h-633z" />
<glyph horiz-adv-x="2048" />
<glyph horiz-adv-x="2048" />
<glyph unicode="&#xd;" horiz-adv-x="2048" />
<glyph unicode=" "  horiz-adv-x="514" />
<glyph unicode="&#x09;" horiz-adv-x="514" />
<glyph unicode="&#xa0;" horiz-adv-x="514" />
<glyph unicode="!" horiz-adv-x="638" d="M145 150q0 73 50.5 125.5t123.5 52.5q71 0 123 -53t52 -125t-52 -124.5t-123 -52.5q-73 0 -123.5 52t-50.5 125zM184 442v992h273v-992h-273z" />
<glyph unicode="&#x22;" horiz-adv-x="747" d="M76 1434h260l-47 -621h-166zM410 1434h260l-47 -621h-166z" />
<glyph unicode="#" horiz-adv-x="1163" d="M72 352v246h182l35 201h-156v245h201l57 324h244l-60 -324h119l58 324h243l-59 -324h156v-245h-201l-37 -201h176v-246h-221l-64 -352h-237l61 352h-120l-64 -352h-238l62 352h-137zM494 598h120l35 201h-119z" />
<glyph unicode="$" horiz-adv-x="1169" d="M49 1010q0 174 123 299t299 125h14v184h209v-184h254v-293h-254v-271q176 -3 300 -129.5t124 -300.5q0 -116 -57 -217t-155 -161.5t-212 -61.5v-184h-209v184h-364v301h364v274h-14q-175 0 -298.5 129t-123.5 306zM358 1006q0 -55 36.5 -94t90.5 -42v271 q-54 -3 -90.5 -42t-36.5 -93zM694 305q47 12 77 47.5t30 85.5q0 49 -30 84.5t-77 46.5v-264z" />
<glyph unicode="%" horiz-adv-x="1587" d="M41 1112q0 144 100.5 245t243.5 101t245.5 -101t102.5 -245q0 -138 -103 -239t-245 -101t-243 100.5t-101 239.5zM256 1114q0 -55 36.5 -93t92.5 -38q58 0 95.5 38t37.5 93t-38 94t-95 39q-56 0 -92.5 -39t-36.5 -94zM293 66l811 1392l188 -108l-807 -1389zM856 313 q0 144 100.5 245t243.5 101q142 0 244 -101t102 -245q0 -138 -102.5 -239t-243.5 -101q-142 0 -243 100.5t-101 239.5zM1069 315q0 -55 37.5 -93t93.5 -38q58 0 95.5 38t37.5 93q0 56 -37.5 95t-95.5 39q-56 0 -93.5 -39t-37.5 -95z" />
<glyph unicode="&#x26;" horiz-adv-x="1165" d="M53 424q0 153 102 269t253 138l-316 603h875v-267h-406l414 -796h-328l-94 182h-64q-54 0 -92.5 -38.5t-38.5 -92.5t38.5 -92.5t92.5 -38.5h615v-291h-637q-170 0 -292 126t-122 298z" />
<glyph unicode="'" horiz-adv-x="411" d="M76 1434h260l-47 -621h-166z" />
<glyph unicode="(" horiz-adv-x="655" d="M90 604q0 206 38.5 441t115.5 421h319q-90 -192 -134 -424.5t-44 -437.5q0 -204 44 -437t134 -425h-319q-77 187 -115.5 422t-38.5 440z" />
<glyph unicode=")" horiz-adv-x="655" d="M92 -258q90 192 134 425t44 437q0 205 -44 437.5t-134 424.5h320q77 -185 115 -420t38 -442q0 -205 -38.5 -440t-114.5 -422h-320z" />
<glyph unicode="*" horiz-adv-x="751" d="M80 1014l174 100l-172 103l63 116l183 -100v201h141v-195l166 98l72 -120l-175 -103l175 -102l-72 -119l-166 102v-196h-141v198l-178 -100z" />
<glyph unicode="+" horiz-adv-x="1048" d="M0 397v256h391v408h266v-408h392v-256h-392v-397h-266v397h-391z" />
<glyph unicode="," horiz-adv-x="520" d="M37 -233l139 497h324l-289 -497h-174z" />
<glyph unicode="-" horiz-adv-x="759" d="M84 336v256h592v-256h-592z" />
<glyph unicode="." horiz-adv-x="520" d="M86 150q0 73 50.5 125.5t123.5 52.5q70 0 122 -53t52 -125t-51.5 -124.5t-122.5 -52.5q-73 0 -123.5 52t-50.5 125z" />
<glyph unicode="/" horiz-adv-x="1093" d="M47 -199l758 1747l242 -112l-758 -1745z" />
<glyph unicode="0" horiz-adv-x="1255" d="M78 717q0 89 13 175t39.5 170.5t71 155t103.5 125t142.5 85t181.5 30.5t180.5 -30.5t141.5 -85t103.5 -125t71 -155t39.5 -170.5t13 -175q0 -107 -18 -209.5t-60 -200t-103.5 -170.5t-156 -117.5t-211.5 -44.5t-212.5 44.5t-157.5 117.5t-103.5 170.5t-59.5 199.5 t-18 210zM375 717q0 -76 7.5 -142.5t26.5 -128t47 -105t72.5 -69.5t100.5 -26q70 0 120.5 38.5t78.5 107t40.5 149t12.5 176.5q0 97 -12.5 177.5t-40.5 148.5t-78.5 106.5t-120.5 38.5t-121 -38.5t-79 -106.5t-41 -148.5t-13 -177.5z" />
<glyph unicode="1" horiz-adv-x="684" d="M80 1167v267h471v-1434h-287v1167h-184z" />
<glyph unicode="2" horiz-adv-x="1128" d="M41 0l422 600q-159 37 -258 147.5t-99 276.5q0 116 62.5 216t169.5 159t231 59q190 0 326.5 -128.5t136.5 -305.5q0 -90 -29.5 -155.5t-97.5 -155.5l-336 -449h455v-264h-983zM399 1024q0 -70 48.5 -119t117.5 -49q71 0 120.5 49t49.5 119q0 69 -49.5 117.5t-120.5 48.5 q-69 0 -117.5 -48.5t-48.5 -117.5z" />
<glyph unicode="3" horiz-adv-x="1062" d="M45 444h291q0 -88 50 -143t124 -55q72 0 123 51t51 123q0 71 -53 122.5t-148 51.5h-254l308 573h-398v267h867l-322 -609q136 -32 216.5 -139t80.5 -248q0 -130 -53.5 -233t-165 -166.5t-264.5 -63.5q-200 0 -326.5 129.5t-126.5 339.5z" />
<glyph unicode="4" horiz-adv-x="1222" d="M31 217l999 1243v-977h156v-266h-156v-217h-289v217h-710zM557 483h184v240z" />
<glyph unicode="5" horiz-adv-x="1021" d="M18 160l170 198q70 -63 127 -90.5t140 -27.5q111 0 176 68.5t65 174.5q0 99 -82 171.5t-211 72.5q-71 0 -140.5 -30.5t-119.5 -82.5l82 820h703v-267h-473l-15 -172q154 0 281.5 -68.5t200.5 -186t73 -257.5q0 -105 -40 -199t-110 -163t-171.5 -109.5t-218.5 -40.5 q-137 0 -240.5 49t-196.5 140z" />
<glyph unicode="6" horiz-adv-x="1054" d="M57 432q0 132 101 283l506 753l221 -165l-279 -418q169 -29 280 -156.5t111 -296.5q0 -122 -63 -227.5t-171.5 -167.5t-236.5 -62q-126 0 -234 62t-171.5 167.5t-63.5 227.5zM354 434q0 -80 51.5 -132t122.5 -52q72 0 122 52t50 132q0 79 -50.5 131.5t-121.5 52.5 q-70 0 -122 -53t-52 -131z" />
<glyph unicode="7" horiz-adv-x="1157" d="M72 1167v267h1022l-729 -1469l-246 135l518 1067h-565z" />
<glyph unicode="8" horiz-adv-x="1052" d="M66 422q0 98 48.5 186.5t125.5 143.5q-129 122 -129 282q0 178 117.5 301t297.5 123t298 -123t118 -301q0 -160 -129 -282q77 -55 125.5 -143.5t48.5 -186.5q0 -186 -133 -316.5t-328 -130.5t-327.5 130.5t-132.5 316.5zM362 412q0 -67 48 -113.5t116 -46.5t116 46.5 t48 113.5q0 70 -45 115.5t-119 45.5t-119 -45.5t-45 -115.5zM383 1030q0 -64 41 -105.5t102 -41.5t102.5 41.5t41.5 105.5q0 63 -42 107.5t-102 44.5t-101.5 -44.5t-41.5 -107.5z" />
<glyph unicode="9" horiz-adv-x="1054" d="M57 1001q0 122 63 227.5t171.5 167.5t236.5 62q126 0 234 -62t171.5 -167.5t63.5 -227.5q0 -133 -100 -282l-506 -754l-221 166l279 418q-169 30 -280.5 156.5t-111.5 295.5zM354 999q0 -79 50.5 -131.5t121.5 -52.5q70 0 122 53t52 131q0 80 -51.5 132.5t-122.5 52.5 q-72 0 -122 -52.5t-50 -132.5z" />
<glyph unicode=":" horiz-adv-x="520" d="M86 150q0 73 50.5 125.5t123.5 52.5q70 0 122 -53t52 -125t-51.5 -124.5t-122.5 -52.5q-73 0 -123.5 52t-50.5 125zM86 793q0 73 50.5 125.5t123.5 52.5q70 0 122 -53t52 -125t-51.5 -124.5t-122.5 -52.5q-73 0 -123.5 52t-50.5 125z" />
<glyph unicode=";" horiz-adv-x="520" d="M37 -233l139 497h324l-289 -497h-174zM158 793q0 73 50.5 125.5t123.5 52.5q70 0 122 -53t52 -125t-51.5 -124.5t-122.5 -52.5q-73 0 -123.5 52t-50.5 125z" />
<glyph unicode="=" horiz-adv-x="1048" d="M0 240v256h1049v-256h-1049zM0 629v256h1049v-256h-1049z" />
<glyph unicode="?" horiz-adv-x="1101" d="M100 991q0 206 124.5 336.5t324.5 130.5t326 -127t126 -317q0 -72 -21.5 -133.5t-53.5 -101.5t-70 -83t-70 -79t-53.5 -88.5t-21.5 -112.5h-285q0 98 29.5 172t71.5 119t83.5 85.5t71 95.5t29.5 126q0 70 -43 116t-119 46q-66 0 -114 -47t-48 -138h-287zM389 150 q0 73 50.5 125.5t123.5 52.5q70 0 122 -53t52 -125t-51.5 -124.5t-122.5 -52.5q-73 0 -123.5 52t-50.5 125z" />
<glyph unicode="@" horiz-adv-x="1490" d="M66 414q0 225 109 416t300.5 304t421.5 113q120 0 237 -33t203 -92v-1122h-473q-167 0 -286 123.5t-119 292.5q0 166 118.5 285.5t286.5 119.5h269v174q-112 47 -236 47q-171 0 -313.5 -86t-222.5 -230t-80 -312q0 -125 49 -239.5t131.5 -197t196.5 -131.5t239 -49v-205 q-160 0 -311.5 63.5t-266 171.5t-184 262t-69.5 325zM680 414q0 -90 64 -149.5t157 -59.5h232v420h-232q-93 0 -157 -60t-64 -151z" />
<glyph unicode="A" horiz-adv-x="1298" d="M6 0l643 1460l643 -1460h-325l-111 268h-410l-114 -268h-326zM551 543h201l-103 248z" />
<glyph unicode="B" horiz-adv-x="1230" d="M133 0v1434h561q172 0 293 -121t121 -293q0 -77 -39 -148t-88 -110q71 -46 118.5 -131.5t47.5 -188.5q0 -181 -129.5 -311.5t-312.5 -130.5h-572zM440 283h232q68 0 116 48t48 115q0 68 -48 116t-116 48h-232v-327zM440 885h222q56 0 94.5 38.5t38.5 94.5t-38.5 94.5 t-94.5 38.5h-222v-266z" />
<glyph unicode="C" horiz-adv-x="1165" d="M53 715q0 152 57.5 289.5t155.5 237t234 158t286 58.5t291 -59v-357q-118 115 -291 115q-170 0 -290.5 -130t-120.5 -312t120.5 -311.5t290.5 -129.5q173 0 291 115v-356q-143 -60 -291 -60q-201 0 -369.5 99.5t-266 270t-97.5 372.5z" />
<glyph unicode="D" horiz-adv-x="1402" d="M133 0v1434h520q142 0 271.5 -57t222.5 -153t148 -228.5t55 -278.5q0 -195 -90.5 -359.5t-251 -261t-355.5 -96.5h-520zM440 283h191q175 0 290 126t115 308t-115 308t-290 126h-191v-868z" />
<glyph unicode="E" horiz-adv-x="1126" d="M133 0v1434h885v-299h-578v-205h551v-295h-551v-334h588v-301h-895z" />
<glyph unicode="F" horiz-adv-x="1126" d="M133 0v1434h885v-299h-578v-236h551v-293h-551v-606h-307z" />
<glyph unicode="G" horiz-adv-x="1574" d="M53 715q0 152 57.5 289.5t155.5 237t234 158t286 58.5q183 0 332.5 -78.5t255.5 -216.5l-252 -192q-58 85 -146.5 135.5t-189.5 50.5q-170 0 -290.5 -130t-120.5 -312t121.5 -311.5t291.5 -129.5q88 0 158.5 24.5t115.5 65.5t72 88.5t37 100.5h-389v274h731q9 -44 9 -112 q0 -152 -55.5 -288.5t-151.5 -236.5t-233 -158.5t-294 -58.5q-201 0 -370 99.5t-267 270t-98 372.5z" />
<glyph unicode="H" horiz-adv-x="1282" d="M133 0v1434h307v-568h402v568h307v-1434h-307v584h-402v-584h-307z" />
<glyph unicode="I" horiz-adv-x="573" d="M133 0v1434h307v-1434h-307z" />
<glyph unicode="J" horiz-adv-x="1024" d="M59 420h303q0 -70 31 -105.5t80 -35.5q46 0 78.5 32t32.5 78v1045h307v-1043q0 -174 -122 -296t-296 -122q-180 0 -297 118t-117 329z" />
<glyph unicode="K" horiz-adv-x="1200" d="M133 0v1434h307v-506l367 506h360l-493 -646l528 -788h-381l-338 530l-43 -53v-477h-307z" />
<glyph unicode="L" horiz-adv-x="1034" d="M133 0v1434h307v-1147h541v-287h-848z" />
<glyph unicode="M" horiz-adv-x="1644" d="M61 0l291 1460l465 -854l465 854l291 -1460h-313l-107 612l-336 -639l-336 639l-106 -612h-314z" />
<glyph unicode="N" horiz-adv-x="1394" d="M123 0v1434h262l592 -635v635h295v-1461l-854 955v-928h-295z" />
<glyph unicode="O" horiz-adv-x="1574" d="M53 715q0 152 57.5 289.5t155.5 237t234 158t286 58.5t286.5 -58.5t235 -158t156.5 -237t58 -289.5q0 -151 -58 -288.5t-156 -237t-234 -158t-286 -58.5q-201 0 -370 99.5t-267 270t-98 372.5zM375 715q0 -182 121.5 -311.5t291.5 -129.5q169 0 290.5 130t121.5 311 t-122.5 311.5t-291.5 130.5q-170 0 -290.5 -130t-120.5 -312z" />
<glyph unicode="P" horiz-adv-x="1202" d="M133 0v1434h524q134 0 247.5 -67.5t179 -181.5t65.5 -247q0 -207 -143.5 -351.5t-348.5 -144.5h-217v-442h-307zM440 727h191q97 0 151 58t54 153q0 88 -59.5 150.5t-145.5 62.5h-191v-424z" />
<glyph unicode="Q" horiz-adv-x="1574" d="M53 715q0 152 57.5 289.5t155.5 237t234 158t286 58.5t286.5 -58.5t235 -158t156.5 -237t58 -289.5q0 -133 -45 -255.5t-123 -217.5t-186.5 -162t-233.5 -92v-297h-291v297q-255 51 -422.5 255t-167.5 472zM375 715q0 -140 74 -252t194 -160v170h291v-170 q117 48 191.5 160.5t74.5 251.5q0 181 -122.5 311.5t-291.5 130.5q-170 0 -290.5 -130t-120.5 -312z" />
<glyph unicode="R" horiz-adv-x="1284" d="M133 0v1434h531q144 0 266 -71t193 -193t71 -265q0 -69 -15.5 -128t-45.5 -104.5t-62 -78.5t-76 -68q114 -86 156.5 -187t42.5 -228v-111h-307v111q0 117 -71.5 196.5t-186.5 79.5h-189v-387h-307zM440 662h195q101 0 173.5 71.5t72.5 171.5q0 101 -72.5 173.5 t-173.5 72.5h-195v-489z" />
<glyph unicode="S" horiz-adv-x="1169" d="M49 1010q0 174 123 299t299 125h477v-293h-454q-57 0 -96.5 -39t-39.5 -96t39.5 -96.5t96.5 -39.5h194q118 0 217 -58.5t156 -157.5t57 -214q0 -117 -57.5 -218.5t-156.5 -161.5t-216 -60h-567v301h534q61 0 103.5 39t42.5 98t-42.5 98t-103.5 39h-184q-175 0 -298.5 129 t-123.5 306z" />
<glyph unicode="T" horiz-adv-x="1085" d="M63 1135v299h959v-299h-326v-1135h-307v1135h-326z" />
<glyph unicode="U" horiz-adv-x="1275" d="M133 475v959h305v-959q0 -83 60 -143t145 -60t145 60t60 143v959h305v-959q0 -210 -149 -356t-363 -146q-140 0 -257 66.5t-184 182t-67 253.5z" />
<glyph unicode="V" horiz-adv-x="1290" d="M16 1434h326l303 -791l303 791h326l-629 -1459z" />
<glyph unicode="W" horiz-adv-x="1667" d="M16 1434h324l338 -809l31 57l-312 752h322l305 -746l303 746h324l-627 -1461l-188 369l-191 -369z" />
<glyph unicode="X" horiz-adv-x="1099" d="M-2 0l393 766l-342 668h334l166 -328l166 328h334l-342 -668l393 -766h-334l-217 424l-217 -424h-334z" />
<glyph unicode="Y" horiz-adv-x="1224" d="M16 1434h340l256 -525l256 525h340l-442 -834v-600h-307v600z" />
<glyph unicode="Z" horiz-adv-x="1077" d="M20 0l531 1135h-428v299h913l-536 -1133h501v-301h-981z" />
<glyph unicode="[" horiz-adv-x="638" d="M82 -260v1726h455v-245h-164v-1235h164v-246h-455z" />
<glyph unicode="\" horiz-adv-x="1093" d="M47 1434l242 112l758 -1747l-242 -110z" />
<glyph unicode="]" horiz-adv-x="638" d="M102 -14h164v1235h-164v245h455v-1726h-455v246z" />
<glyph unicode="_" horiz-adv-x="1310" d="M39 -74h1231v-205h-1231v205z" />
<glyph unicode="`" horiz-adv-x="604" d="M49 1346h287l196 -283h-188z" />
<glyph unicode="a" d="M-6 0l471 987l471 -987h-303l-41 96h-254l-41 -96h-303zM408 293h114l-57 143z" />
<glyph unicode="b" horiz-adv-x="927" d="M102 0v963h467q118 0 201.5 -81.5t83.5 -201.5q0 -95 -61 -166q92 -85 92 -207q0 -125 -92.5 -216t-217.5 -91h-473zM381 262h145q26 0 45 19t19 45t-19 44.5t-45 18.5h-145v-127zM381 602h137q20 0 34.5 14.5t14.5 34.5t-14.5 34.5t-34.5 14.5h-137v-98z" />
<glyph unicode="c" horiz-adv-x="804" d="M33 479q0 138 70 255t188 184t254 67q99 0 198 -41v-336q-75 92 -198 92q-89 0 -151 -64.5t-62 -156.5q0 -93 62 -158t151 -65q123 0 198 92v-336q-99 -41 -198 -41q-136 0 -254 67.5t-188 184.5t-70 256z" />
<glyph unicode="d" horiz-adv-x="1044" d="M102 0v963h443q128 0 236 -64.5t170.5 -175.5t62.5 -242q0 -200 -136 -340.5t-333 -140.5h-443zM385 262h111q92 0 155.5 63.5t63.5 155.5t-63.5 155.5t-155.5 63.5h-111v-438z" />
<glyph unicode="e" horiz-adv-x="782" d="M102 0v963h615v-263h-332v-82h305v-245h-305v-111h338v-262h-621z" />
<glyph unicode="f" horiz-adv-x="784" d="M102 0v963h615v-263h-332v-102h305v-246h-305v-352h-283z" />
<glyph unicode="g" horiz-adv-x="1081" d="M31 475q0 139 69.5 256.5t187 185.5t255.5 68q264 0 409 -201l-239 -174q-63 90 -170 90q-88 0 -150.5 -66.5t-62.5 -158.5q0 -90 62 -155.5t151 -65.5q115 0 159 74h-159v225h499q9 -41 9 -78q0 -136 -69 -252t-186 -184t-253 -68t-254 67t-188 183.5t-70 253.5z" />
<glyph unicode="h" horiz-adv-x="995" d="M102 0v963h283v-351h225v351h283v-963h-283v354h-225v-354h-283z" />
<glyph unicode="i" horiz-adv-x="487" d="M102 0v963h283v-963h-283z" />
<glyph unicode="j" horiz-adv-x="837" d="M57 322h283q0 -72 55 -72q23 0 39.5 16t16.5 39v658h284v-652q0 -141 -99 -239.5t-241 -98.5q-137 0 -237.5 96.5t-100.5 252.5z" />
<glyph unicode="k" horiz-adv-x="944" d="M102 0v963h283v-256l174 256h334l-311 -420l366 -543h-352l-193 309l-18 -30v-279h-283z" />
<glyph unicode="l" horiz-adv-x="794" d="M102 0v963h283v-701h350v-262h-633z" />
<glyph unicode="m" horiz-adv-x="1169" d="M51 0l213 985l316 -545l315 545l213 -985h-272l-60 309l-196 -336l-197 336l-59 -309h-273z" />
<glyph unicode="n" horiz-adv-x="991" d="M92 0v963h232l303 -326v326h272v-990l-534 559v-532h-273z" />
<glyph unicode="o" horiz-adv-x="1081" d="M31 475q0 139 70 256.5t188 185.5t254 68t253 -68t186 -185.5t69 -256.5q0 -136 -69 -252t-186 -184t-253 -68t-254 68t-188 184.5t-70 251.5zM330 475q0 -90 62 -155.5t151 -65.5q88 0 148.5 65.5t60.5 155.5q0 93 -60.5 159t-148.5 66q-89 0 -151 -66t-62 -159z" />
<glyph unicode="p" horiz-adv-x="901" d="M102 0v963h433q140 0 237.5 -99.5t97.5 -238.5q0 -141 -98 -246t-237 -105h-150v-274h-283zM385 537h111q34 0 58 23.5t24 57.5t-24 58t-58 24h-111v-163z" />
<glyph unicode="q" horiz-adv-x="1107" d="M43 475q0 139 70 256.5t188 185.5t254 68t253 -68t186 -185.5t69 -256.5q0 -175 -110.5 -312t-278.5 -177v-207h-242v209q-168 40 -278.5 176t-110.5 311zM342 475q0 -113 90 -180v92h242v-94q42 30 66 78t24 104q0 93 -60.5 159t-148.5 66q-89 0 -151 -66t-62 -159z" />
<glyph unicode="r" horiz-adv-x="935" d="M102 0v963h394q157 0 263.5 -107t106.5 -264q0 -84 -31.5 -148t-78.5 -98q63 -38 86.5 -92t23.5 -145v-109h-278v90q0 58 -40 98.5t-99 40.5h-64v-229h-283zM385 483h80q46 0 77 31.5t31 77.5t-31 77t-77 31h-80v-217z" />
<glyph unicode="s" horiz-adv-x="823" d="M57 662q0 126 87.5 213.5t213.5 87.5h318v-263h-305q-15 0 -26 -10.5t-11 -25.5t11 -26t26 -11h100q132 0 222.5 -91t90.5 -223q0 -123 -95 -218t-218 -95h-367v262h353q20 0 34.5 14.5t14.5 34.5t-14.5 34.5t-34.5 14.5h-99q-126 0 -213.5 88t-87.5 214z" />
<glyph unicode="t" horiz-adv-x="790" d="M49 690v273h696v-273h-206v-690h-283v690h-207z" />
<glyph unicode="u" horiz-adv-x="901" d="M92 332v631h283v-639q0 -31 22.5 -53.5t53.5 -22.5t53 22.5t22 53.5v639h283v-631q0 -150 -104 -255.5t-254 -105.5q-149 0 -254 106t-105 255z" />
<glyph unicode="v" horiz-adv-x="913" d="M6 963h295l156 -390l155 390h295l-450 -990z" />
<glyph unicode="w" horiz-adv-x="1222" d="M6 963h287l196 -428l17 38l-172 390h276l156 -416l154 416h297l-449 -992l-141 322l-148 -320z" />
<glyph unicode="x" horiz-adv-x="884" d="M4 0l264 512l-231 451h309l96 -209l97 209h309l-232 -451l265 -512h-310l-129 274l-129 -274h-309z" />
<glyph unicode="y" horiz-adv-x="937" d="M6 963h324l139 -293l139 293h324l-322 -564v-399h-282v399z" />
<glyph unicode="z" horiz-adv-x="886" d="M39 0l352 700h-301v263h756l-352 -701h327v-262h-782z" />
<glyph unicode="{" horiz-adv-x="636" d="M31 481v244q80 0 108.5 29.5t28.5 103.5v397q0 89 60.5 150t148.5 61h215v-256h-88q-17 0 -29 -12t-12 -29v-321q0 -194 -144 -246q144 -52 144 -246v-321q0 -17 12 -29t29 -12h88v-256h-215q-88 0 -148.5 60.5t-60.5 148.5v399q0 74 -28.5 104.5t-108.5 30.5z" />
<glyph unicode="|" horiz-adv-x="616" d="M162 -406v1942h291v-1942h-291z" />
<glyph unicode="}" horiz-adv-x="636" d="M45 -6h88q17 0 29 12t12 29v321q0 194 143 246q-143 52 -143 246v321q0 17 -12 29t-29 12h-88v256h215q88 0 148.5 -61t60.5 -150v-397q0 -74 28.5 -103.5t108.5 -29.5v-244q-80 0 -108.5 -30.5t-28.5 -104.5v-399q0 -88 -60.5 -148.5t-148.5 -60.5h-215v256z" />
<glyph unicode="&#xa1;" horiz-adv-x="638" d="M137 809q0 73 50.5 124.5t123.5 51.5q71 0 122.5 -52t51.5 -124t-52 -125t-122 -53q-73 0 -123.5 52.5t-50.5 125.5zM176 -475v991h273v-991h-273z" />
<glyph unicode="&#xa2;" horiz-adv-x="804" d="M33 479q0 176 110 312t277 178v225h194v-213q51 -8 129 -37v-336q-75 92 -198 92q-89 0 -151 -64.5t-62 -156.5q0 -93 62 -158t151 -65q123 0 198 92v-336q-78 -29 -129 -37v-229h-194v242q-167 40 -277 177t-110 314z" />
<glyph unicode="&#xa3;" horiz-adv-x="1175" d="M82 0v291h100v287h-67v258h67v208q0 171 124 292.5t296 121.5q96 0 172.5 -31.5t124.5 -86.5t74 -125.5t28 -151.5h-272q-5 43 -41.5 77t-87.5 34q-54 0 -92.5 -39t-38.5 -93v-206h338v-258h-338v-287h240q40 0 68 28t28 68q0 44 -35 92h295q29 -60 29 -114 q0 -161 -111 -263t-301 -102h-600z" />
<glyph unicode="&#xa5;" horiz-adv-x="1224" d="M16 1434h340l256 -525l256 525h340l-358 -674h287v-230h-371v-45h371v-229h-371v-256h-307v256h-371v229h371v45h-371v230h285z" />
<glyph unicode="&#xa7;" horiz-adv-x="1185" d="M57 479q0 162 105 283q-105 124 -105 287q0 174 123 299t299 125h477v-293h-454q-55 0 -95 -40t-40 -96t39.5 -95.5t95.5 -39.5h194q118 0 217 -58.5t156 -157.5t57 -214q0 -152 -96 -276q96 -107 96 -254q0 -180 -126.5 -310.5t-303.5 -130.5h-567v302h565q49 0 82 33.5 t33 80.5q0 49 -32.5 82t-96.5 33h-201q-115 0 -213 61t-153.5 162.5t-55.5 216.5zM367 477q0 -57 40 -97t97 -40h166q58 0 98.5 40t40.5 97q0 59 -40.5 99t-98.5 40h-166q-57 0 -97 -40.5t-40 -98.5z" />
<glyph unicode="&#xa8;" horiz-adv-x="927" d="M135 1180q0 59 41 101t100 42q57 0 99.5 -42.5t42.5 -100.5q0 -60 -42 -102t-100 -42q-60 0 -100.5 42t-40.5 102zM526 1180q0 59 41 101t101 42q57 0 99 -42.5t42 -100.5q0 -60 -42 -102t-99 -42q-60 0 -101 42t-41 102z" />
<glyph unicode="&#xa9;" horiz-adv-x="1597" d="M63 715q0 153 58 291t156 237t234.5 157t287.5 58q202 0 371 -98.5t266.5 -269t97.5 -375.5q0 -102 -26 -198.5t-73 -178t-114.5 -149.5t-148.5 -115.5t-176.5 -74t-196.5 -26.5q-202 0 -371 98.5t-267 269t-98 374.5zM252 715q0 -155 72.5 -284t198.5 -203t276 -74 t276 74t198.5 203t72.5 284q0 117 -43 221.5t-116 179.5t-174 118.5t-214 43.5t-214 -43.5t-174 -118.5t-116 -179.5t-43 -221.5zM385 723q0 180 129 307t309 127q83 0 170 -37v-286q-62 79 -170 79q-75 0 -128.5 -55.5t-53.5 -134.5q0 -78 53.5 -134.5t128.5 -56.5 q107 0 170 80v-286q-87 -37 -170 -37q-179 0 -308.5 127.5t-129.5 306.5z" />
<glyph unicode="&#xaa;" horiz-adv-x="581" d="M18 887l273 573l272 -573h-153l-31 71h-174l-33 -71h-154zM244 1071h94l-47 117z" />
<glyph unicode="&#xab;" horiz-adv-x="1048" d="M57 514l318 424h258l-314 -424l314 -424h-258zM416 514l317 424h258l-313 -424l313 -424h-258z" />
<glyph unicode="&#xad;" horiz-adv-x="759" d="M84 336v256h592v-256h-592z" />
<glyph unicode="&#xae;" horiz-adv-x="688" d="M63 1176q0 118 82 200t199 82t199 -82t82 -200t-82 -200.5t-199 -82.5t-199 82.5t-82 200.5zM121 1176q0 -98 64 -165t159 -67t159 67t64 165t-64 164.5t-159 66.5t-159 -66.5t-64 -164.5zM236 1014v327h114q53 0 88 -32.5t35 -83.5q0 -33 -16 -58t-39 -37 q55 -31 55 -102v-14h-53v14q0 29 -20.5 55.5t-53.5 26.5h-57v-96h-53zM289 1153h63q29 0 48.5 21.5t19.5 50.5q0 30 -19.5 50.5t-48.5 20.5h-63v-143z" />
<glyph unicode="&#xaf;" horiz-adv-x="817" d="M127 1081v209h561v-209h-561z" />
<glyph unicode="&#xb0;" horiz-adv-x="688" d="M70 1182q0 116 79.5 196t194.5 80t194.5 -80t79.5 -196t-79.5 -196.5t-194.5 -80.5t-194.5 80.5t-79.5 196.5zM238 1182q0 -46 30.5 -77.5t75.5 -31.5q46 0 76.5 31.5t30.5 77.5q0 47 -31 77.5t-76 30.5t-75.5 -30.5t-30.5 -77.5z" />
<glyph unicode="&#xb4;" horiz-adv-x="604" d="M72 1063l196 283h287l-295 -283h-188z" />
<glyph unicode="&#xb6;" horiz-adv-x="1212" d="M53 969q0 125 63 232t170 170t232 63h606v-256h-106v-1438h-242v1530h-71v-1530h-242v768q-173 17 -291.5 150t-118.5 311z" />
<glyph unicode="&#xb7;" horiz-adv-x="520" d="M86 543q0 73 50.5 125.5t123.5 52.5q70 0 122 -53t52 -125t-51.5 -124t-122.5 -52q-73 0 -123.5 51.5t-50.5 124.5z" />
<glyph unicode="&#xba;" horiz-adv-x="659" d="M39 1167q0 122 84.5 207.5t206.5 85.5t206.5 -85.5t84.5 -207.5q0 -121 -84.5 -205.5t-206.5 -84.5t-206.5 84.5t-84.5 205.5zM213 1167q0 -52 32.5 -86t84.5 -34t84 34t32 86q0 53 -32 88t-84 35t-84.5 -35t-32.5 -88z" />
<glyph unicode="&#xbb;" horiz-adv-x="1048" d="M57 90l314 424l-314 424h258l318 -424l-318 -424h-258zM416 90l313 424l-313 424h258l317 -424l-317 -424h-258z" />
<glyph unicode="&#xbf;" horiz-adv-x="1101" d="M100 -55q0 63 16 116.5t41.5 92.5t56.5 74.5t62.5 69t57 68t41.5 80t16 97.5h285q0 -72 -15.5 -131t-41 -98.5t-55.5 -73t-60.5 -63.5t-56 -61.5t-41 -75t-15.5 -95.5q0 -70 43 -116t119 -46q66 0 114 47t48 137h286q0 -206 -124 -336.5t-324 -130.5t-326.5 127.5 t-126.5 317.5zM365 809q0 72 51.5 124t122.5 52q73 0 123.5 -51.5t50.5 -124.5t-50.5 -125.5t-123.5 -52.5q-70 0 -122 53t-52 125z" />
<glyph unicode="&#xc0;" horiz-adv-x="1298" d="M6 0l643 1460l643 -1460h-325l-111 268h-410l-114 -268h-326zM313 1802h287l197 -282h-189zM551 543h201l-103 248z" />
<glyph unicode="&#xc1;" horiz-adv-x="1298" d="M6 0l643 1460l643 -1460h-325l-111 268h-410l-114 -268h-326zM489 1520l197 282h287l-295 -282h-189zM551 543h201l-103 248z" />
<glyph unicode="&#xc2;" horiz-adv-x="1298" d="M6 0l643 1460l643 -1460h-325l-111 268h-410l-114 -268h-326zM414 1462v205l237 141l238 -141v-205l-238 137zM551 543h201l-103 248z" />
<glyph unicode="&#xc3;" horiz-adv-x="1298" d="M6 0l643 1460l643 -1460h-325l-111 268h-410l-114 -268h-326zM317 1618q76 158 228 158q28 0 93.5 -18.5t96.5 -18.5q50 0 86 57l162 -100q-76 -158 -227 -158q-45 0 -104 18.5t-87 18.5q-50 0 -86 -57zM551 543h201l-103 248z" />
<glyph unicode="&#xc4;" horiz-adv-x="1298" d="M6 0l643 1460l643 -1460h-325l-111 268h-410l-114 -268h-326zM313 1647q0 59 41 101t101 42q57 0 99 -42.5t42 -100.5q0 -60 -42 -102t-99 -42q-60 0 -101 42t-41 102zM551 543h201l-103 248zM705 1647q0 59 41 101t100 42q57 0 99 -42.5t42 -100.5q0 -60 -42 -102 t-99 -42q-60 0 -100.5 42t-40.5 102z" />
<glyph unicode="&#xc5;" horiz-adv-x="1298" d="M6 0l643 1460l643 -1460h-325l-111 268h-410l-114 -268h-326zM414 1704q0 97 68.5 164t166.5 67t167 -67t69 -164t-69 -164t-167 -67t-166.5 67t-68.5 164zM551 543h201l-103 248zM551 1704q0 -40 26.5 -71t71.5 -31t72 31t27 71t-27 71t-72 31t-71.5 -31t-26.5 -71z" />
<glyph unicode="&#xc6;" horiz-adv-x="1605" d="M2 0l639 1434h883v-299h-748l92 -205h629v-295h-496l150 -334h383v-301h-571l-111 268h-410l-114 -268h-326zM547 543h201l-103 248z" />
<glyph unicode="&#xc7;" horiz-adv-x="1165" d="M53 715q0 152 57.5 289.5t155.5 237t234 158t286 58.5t291 -59v-357q-118 115 -291 115q-170 0 -290.5 -130t-120.5 -312q0 -117 51.5 -215.5t140.5 -157.5l95 137l190 -131l-51 -74q163 6 276 115v-356q-143 -60 -291 -60q-84 0 -178 23l-176 -260l-192 133l151 219 q-155 100 -246.5 266t-91.5 361z" />
<glyph unicode="&#xc8;" horiz-adv-x="1126" d="M133 0v1434h885v-299h-578v-205h551v-295h-551v-334h588v-301h-895zM328 1802h286l197 -282h-188z" />
<glyph unicode="&#xc9;" horiz-adv-x="1126" d="M133 0v1434h885v-299h-578v-205h551v-295h-551v-334h588v-301h-895zM391 1520l197 282h286l-294 -282h-189z" />
<glyph unicode="&#xca;" horiz-adv-x="1126" d="M133 0v1434h885v-299h-578v-205h551v-295h-551v-334h588v-301h-895zM348 1462v205l238 141l237 -141v-205l-237 137z" />
<glyph unicode="&#xcb;" horiz-adv-x="1126" d="M133 0v1434h885v-299h-578v-205h551v-295h-551v-334h588v-301h-895zM256 1647q0 59 41 101t100 42q57 0 99.5 -42.5t42.5 -100.5q0 -59 -42.5 -101.5t-99.5 -42.5q-60 0 -100.5 42t-40.5 102zM647 1647q0 59 41 101t100 42q57 0 99.5 -42.5t42.5 -100.5q0 -59 -42 -101.5 t-100 -42.5q-60 0 -100.5 42t-40.5 102z" />
<glyph unicode="&#xcc;" horiz-adv-x="573" d="M-51 1804h287l196 -282h-188zM133 0v1434h307v-1434h-307z" />
<glyph unicode="&#xcd;" horiz-adv-x="573" d="M131 1520l197 282h286l-295 -282h-188zM133 0v1434h307v-1434h-307z" />
<glyph unicode="&#xce;" horiz-adv-x="573" d="M59 1462v205l238 141l238 -141v-205l-238 137zM133 0v1434h307v-1434h-307z" />
<glyph unicode="&#xcf;" horiz-adv-x="573" d="M-41 1647q0 59 41 101t100 42q57 0 99.5 -42.5t42.5 -100.5q0 -59 -42 -101.5t-100 -42.5q-60 0 -100.5 42t-40.5 102zM133 0v1434h307v-1434h-307zM350 1647q0 59 41 101t101 42q57 0 99 -42.5t42 -100.5q0 -60 -42 -102t-99 -42q-60 0 -101 42t-41 102z" />
<glyph unicode="&#xd0;" horiz-adv-x="1402" d="M31 623v278h102v533h520q142 0 271.5 -57t222.5 -153t148 -228.5t55 -278.5q0 -195 -90.5 -359.5t-251 -261t-355.5 -96.5h-520v623h-102zM440 283h191q175 0 290 126t115 308t-115 308t-290 126h-191v-250h248v-278h-248v-340z" />
<glyph unicode="&#xd1;" horiz-adv-x="1394" d="M123 0v1434h262l592 -635v635h295v-1461l-854 955v-928h-295zM352 1618q76 158 228 158q28 0 93.5 -18.5t96.5 -18.5q50 0 86 57l162 -100q-76 -158 -227 -158q-45 0 -104 18.5t-87 18.5q-50 0 -86 -57z" />
<glyph unicode="&#xd2;" horiz-adv-x="1574" d="M53 715q0 152 57.5 289.5t155.5 237t234 158t286 58.5t286.5 -58.5t235 -158t156.5 -237t58 -289.5q0 -151 -58 -288.5t-156 -237t-234 -158t-286 -58.5q-201 0 -370 99.5t-267 270t-98 372.5zM375 715q0 -182 121.5 -311.5t291.5 -129.5q169 0 290.5 130t121.5 311 t-122.5 311.5t-291.5 130.5q-170 0 -290.5 -130t-120.5 -312zM424 1802h287l196 -282h-188z" />
<glyph unicode="&#xd3;" horiz-adv-x="1574" d="M53 715q0 152 57.5 289.5t155.5 237t234 158t286 58.5t286.5 -58.5t235 -158t156.5 -237t58 -289.5q0 -151 -58 -288.5t-156 -237t-234 -158t-286 -58.5q-201 0 -370 99.5t-267 270t-98 372.5zM375 715q0 -182 121.5 -311.5t291.5 -129.5q169 0 290.5 130t121.5 311 t-122.5 311.5t-291.5 130.5q-170 0 -290.5 -130t-120.5 -312zM637 1520l197 282h286l-295 -282h-188z" />
<glyph unicode="&#xd4;" horiz-adv-x="1574" d="M53 715q0 152 57.5 289.5t155.5 237t234 158t286 58.5t286.5 -58.5t235 -158t156.5 -237t58 -289.5q0 -151 -58 -288.5t-156 -237t-234 -158t-286 -58.5q-201 0 -370 99.5t-267 270t-98 372.5zM375 715q0 -182 121.5 -311.5t291.5 -129.5q169 0 290.5 130t121.5 311 t-122.5 311.5t-291.5 130.5q-170 0 -290.5 -130t-120.5 -312zM547 1462v205l237 141l238 -141v-205l-238 137z" />
<glyph unicode="&#xd5;" horiz-adv-x="1574" d="M53 715q0 152 57.5 289.5t155.5 237t234 158t286 58.5t286.5 -58.5t235 -158t156.5 -237t58 -289.5q0 -151 -58 -288.5t-156 -237t-234 -158t-286 -58.5q-201 0 -370 99.5t-267 270t-98 372.5zM375 715q0 -182 121.5 -311.5t291.5 -129.5q169 0 290.5 130t121.5 311 t-122.5 311.5t-291.5 130.5q-170 0 -290.5 -130t-120.5 -312zM451 1618q76 158 227 158q28 0 93.5 -18.5t96.5 -18.5q50 0 86 57l162 -100q-76 -158 -227 -158q-45 0 -104 18.5t-87 18.5q-50 0 -86 -57z" />
<glyph unicode="&#xd6;" horiz-adv-x="1574" d="M53 715q0 152 57.5 289.5t155.5 237t234 158t286 58.5t286.5 -58.5t235 -158t156.5 -237t58 -289.5q0 -151 -58 -288.5t-156 -237t-234 -158t-286 -58.5q-201 0 -370 99.5t-267 270t-98 372.5zM375 715q0 -182 121.5 -311.5t291.5 -129.5q169 0 290.5 130t121.5 311 t-122.5 311.5t-291.5 130.5q-170 0 -290.5 -130t-120.5 -312zM457 1647q0 59 41 101t100 42q57 0 99 -42.5t42 -100.5q0 -60 -42 -102t-99 -42q-60 0 -100.5 42t-40.5 102zM848 1647q0 59 41 101t100 42q57 0 99 -42.5t42 -100.5q0 -60 -42 -102t-99 -42q-60 0 -100.5 42 t-40.5 102z" />
<glyph unicode="&#xd7;" horiz-adv-x="1112" d="M66 823l174 187l274 -285l274 285l175 -187l-273 -282l268 -279l-190 -176l-254 266l-254 -266l-190 176l268 279z" />
<glyph unicode="&#xd8;" horiz-adv-x="1574" d="M31 106l166 166q-144 197 -144 443q0 152 57.5 289.5t155.5 237t234 158t286 58.5q250 0 449 -155l154 153l155 -151l-160 -158q138 -197 138 -432q0 -151 -58 -288.5t-156 -237t-234 -158t-286 -58.5q-242 0 -436 144l-166 -164zM375 715q0 -118 51 -215l588 583 q-104 74 -228 74q-170 0 -290.5 -130t-120.5 -312zM573 338q98 -64 215 -64q169 0 290.5 130t121.5 311q0 101 -47 200z" />
<glyph unicode="&#xd9;" horiz-adv-x="1275" d="M133 475v959h305v-959q0 -83 60 -143t145 -60t145 60t60 143v959h305v-959q0 -210 -149 -356t-363 -146q-140 0 -257 66.5t-184 182t-67 253.5zM332 1802h286l197 -282h-188z" />
<glyph unicode="&#xda;" horiz-adv-x="1275" d="M133 475v959h305v-959q0 -83 60 -143t145 -60t145 60t60 143v959h305v-959q0 -210 -149 -356t-363 -146q-140 0 -257 66.5t-184 182t-67 253.5zM477 1520l197 282h287l-295 -282h-189z" />
<glyph unicode="&#xdb;" horiz-adv-x="1275" d="M133 475v959h305v-959q0 -83 60 -143t145 -60t145 60t60 143v959h305v-959q0 -210 -149 -356t-363 -146q-140 0 -257 66.5t-184 182t-67 253.5zM408 1485v205l237 141l238 -141v-205l-238 137z" />
<glyph unicode="&#xdc;" horiz-adv-x="1275" d="M133 475v959h305v-959q0 -83 60 -143t145 -60t145 60t60 143v959h305v-959q0 -210 -149 -356t-363 -146q-140 0 -257 66.5t-184 182t-67 253.5zM313 1647q0 59 41 101t101 42q57 0 99 -42.5t42 -100.5q0 -60 -42 -102t-99 -42q-60 0 -101 42t-41 102zM705 1647 q0 59 41 101t100 42q57 0 99 -42.5t42 -100.5q0 -60 -42 -102t-99 -42q-60 0 -100.5 42t-40.5 102z" />
<glyph unicode="&#xdd;" horiz-adv-x="1224" d="M16 1434h340l256 -525l256 525h340l-442 -834v-600h-307v600zM469 1522l197 282h286l-295 -282h-188z" />
<glyph unicode="&#xde;" horiz-adv-x="1202" d="M133 0v1434h307v-160h217q134 0 247.5 -67.5t179 -181.5t65.5 -247q0 -136 -65.5 -250t-178.5 -179.5t-248 -65.5h-217v-283h-307zM440 567h191q97 0 151 58t54 153q0 88 -59.5 150.5t-145.5 62.5h-191v-424z" />
<glyph unicode="&#xe0;" d="M-6 0l471 987l471 -987h-303l-41 96h-254l-41 -96h-303zM119 1346h287l196 -283h-188zM408 293h114l-57 143z" />
<glyph unicode="&#xe1;" d="M-6 0l471 987l471 -987h-303l-41 96h-254l-41 -96h-303zM309 1063l197 283h287l-295 -283h-189zM408 293h114l-57 143z" />
<glyph unicode="&#xe2;" d="M-6 0l471 987l471 -987h-303l-41 96h-254l-41 -96h-303zM229 1012v205l238 141l238 -141v-205l-238 137zM408 293h114l-57 143z" />
<glyph unicode="&#xe3;" d="M-6 0l471 987l471 -987h-303l-41 96h-254l-41 -96h-303zM133 1184q75 157 227 157q28 0 94 -18t97 -18q50 0 86 57l162 -100q-76 -158 -228 -158q-45 0 -103.5 18.5t-86.5 18.5q-50 0 -86 -58zM408 293h114l-57 143z" />
<glyph unicode="&#xe4;" d="M-6 0l471 987l471 -987h-303l-41 96h-254l-41 -96h-303zM129 1180q0 59 41 101t100 42q57 0 99.5 -42.5t42.5 -100.5q0 -60 -42 -102t-100 -42q-60 0 -100.5 42t-40.5 102zM408 293h114l-57 143zM520 1180q0 59 41 101t101 42q57 0 99 -42.5t42 -100.5q0 -60 -42 -102 t-99 -42q-60 0 -101 42t-41 102z" />
<glyph unicode="&#xe5;" d="M-6 0l471 987l471 -987h-303l-41 96h-254l-41 -96h-303zM229 1237q0 97 69 164t167 67t166.5 -67t68.5 -164t-68.5 -164t-166.5 -67t-167 67t-69 164zM367 1237q0 -40 26.5 -71t71.5 -31t71.5 31t26.5 71t-26.5 71t-71.5 31t-71.5 -31t-26.5 -71zM408 293h114l-57 143z " />
<glyph unicode="&#xe6;" horiz-adv-x="1099" d="M-6 0l471 963h569v-263h-442l41 -82h375v-245h-254l53 -111h233v-262h-407l-41 96h-254l-41 -96h-303zM408 293h114l-57 143z" />
<glyph unicode="&#xe7;" horiz-adv-x="804" d="M33 479q0 138 70 255t188 184t254 67q99 0 198 -41v-336q-75 92 -198 92q-89 0 -151 -64.5t-62 -156.5q0 -77 41 -133l61 88l187 -129l-29 -45q90 14 151 88v-336q-99 -41 -198 -41q-59 0 -129 17l-127 -201l-201 141l117 172q-80 71 -126 169.5t-46 209.5z" />
<glyph unicode="&#xe8;" horiz-adv-x="782" d="M102 0v963h615v-263h-332v-82h305v-245h-305v-111h338v-262h-621zM125 1346h287l196 -283h-188z" />
<glyph unicode="&#xe9;" horiz-adv-x="782" d="M102 0v963h615v-263h-332v-82h305v-245h-305v-111h338v-262h-621zM240 1063l196 283h287l-295 -283h-188z" />
<glyph unicode="&#xea;" horiz-adv-x="782" d="M102 0v963h615v-263h-332v-82h305v-245h-305v-111h338v-262h-621zM172 1012v205l238 141l237 -141v-205l-237 137z" />
<glyph unicode="&#xeb;" horiz-adv-x="782" d="M70 1180q0 59 41 101t100 42q57 0 99 -42.5t42 -100.5q0 -60 -42 -102t-99 -42q-60 0 -100.5 42t-40.5 102zM102 0v963h615v-263h-332v-82h305v-245h-305v-111h338v-262h-621zM461 1180q0 59 41 101t100 42q57 0 99 -42.5t42 -100.5q0 -60 -42 -102t-99 -42 q-60 0 -100.5 42t-40.5 102z" />
<glyph unicode="&#xec;" horiz-adv-x="487" d="M-100 1346h286l197 -283h-188zM102 0v963h283v-963h-283z" />
<glyph unicode="&#xed;" horiz-adv-x="487" d="M98 1063l197 283h287l-295 -283h-189zM102 0v963h283v-963h-283z" />
<glyph unicode="&#xee;" horiz-adv-x="487" d="M6 1012v205l238 141l237 -141v-205l-237 137zM102 0v963h283v-963h-283z" />
<glyph unicode="&#xef;" horiz-adv-x="487" d="M-86 1180q0 59 41 101t100 42q57 0 99.5 -42.5t42.5 -100.5q0 -60 -42.5 -102t-99.5 -42q-60 0 -100.5 42t-40.5 102zM102 0v963h283v-963h-283zM305 1180q0 59 41 101t100 42q57 0 99.5 -42.5t42.5 -100.5q0 -60 -42 -102t-100 -42q-60 0 -100.5 42t-40.5 102z" />
<glyph unicode="&#xf0;" horiz-adv-x="1044" d="M6 397v213h96v353h443q128 0 236 -64.5t170.5 -175.5t62.5 -242q0 -200 -136 -340.5t-333 -140.5h-443v397h-96zM385 262h111q92 0 155.5 63.5t63.5 155.5t-63.5 155.5t-155.5 63.5h-111v-90h176v-213h-176v-135z" />
<glyph unicode="&#xf1;" horiz-adv-x="991" d="M92 0v963h232l303 -326v326h272v-990l-534 559v-532h-273zM170 1184q75 157 227 157q28 0 94 -18t97 -18q50 0 86 57l162 -100q-76 -158 -228 -158q-45 0 -103.5 18.5t-86.5 18.5q-50 0 -86 -58z" />
<glyph unicode="&#xf2;" horiz-adv-x="1081" d="M31 475q0 139 70 256.5t188 185.5t254 68t253 -68t186 -185.5t69 -256.5q0 -136 -69 -252t-186 -184t-253 -68t-254 68t-188 184.5t-70 251.5zM209 1346h287l196 -283h-188zM330 475q0 -90 62 -155.5t151 -65.5q88 0 148.5 65.5t60.5 155.5q0 93 -60.5 159t-148.5 66 q-89 0 -151 -66t-62 -159z" />
<glyph unicode="&#xf3;" horiz-adv-x="1081" d="M31 475q0 139 70 256.5t188 185.5t254 68t253 -68t186 -185.5t69 -256.5q0 -136 -69 -252t-186 -184t-253 -68t-254 68t-188 184.5t-70 251.5zM330 475q0 -90 62 -155.5t151 -65.5q88 0 148.5 65.5t60.5 155.5q0 93 -60.5 159t-148.5 66q-89 0 -151 -66t-62 -159z M379 1063l196 283h287l-295 -283h-188z" />
<glyph unicode="&#xf4;" horiz-adv-x="1081" d="M31 475q0 139 70 256.5t188 185.5t254 68t253 -68t186 -185.5t69 -256.5q0 -136 -69 -252t-186 -184t-253 -68t-254 68t-188 184.5t-70 251.5zM309 1012v205l238 141l237 -141v-205l-237 137zM330 475q0 -90 62 -155.5t151 -65.5q88 0 148.5 65.5t60.5 155.5 q0 93 -60.5 159t-148.5 66q-89 0 -151 -66t-62 -159z" />
<glyph unicode="&#xf5;" horiz-adv-x="1081" d="M31 475q0 139 70 256.5t188 185.5t254 68t253 -68t186 -185.5t69 -256.5q0 -136 -69 -252t-186 -184t-253 -68t-254 68t-188 184.5t-70 251.5zM209 1184q75 157 227 157q28 0 94 -18t97 -18q50 0 86 57l161 -100q-76 -158 -227 -158q-45 0 -103.5 18.5t-86.5 18.5 q-50 0 -86 -58zM330 475q0 -90 62 -155.5t151 -65.5q88 0 148.5 65.5t60.5 155.5q0 93 -60.5 159t-148.5 66q-89 0 -151 -66t-62 -159z" />
<glyph unicode="&#xf6;" horiz-adv-x="1081" d="M31 475q0 139 70 256.5t188 185.5t254 68t253 -68t186 -185.5t69 -256.5q0 -136 -69 -252t-186 -184t-253 -68t-254 68t-188 184.5t-70 251.5zM205 1180q0 59 41 101t100 42q57 0 99 -42.5t42 -100.5q0 -60 -42 -102t-99 -42q-60 0 -100.5 42t-40.5 102zM330 475 q0 -90 62 -155.5t151 -65.5q88 0 148.5 65.5t60.5 155.5q0 93 -60.5 159t-148.5 66q-89 0 -151 -66t-62 -159zM596 1180q0 59 41 101t100 42q57 0 99.5 -42.5t42.5 -100.5q0 -60 -42.5 -102t-99.5 -42q-60 0 -100.5 42t-40.5 102z" />
<glyph unicode="&#xf7;" horiz-adv-x="1048" d="M0 397v256h1049v-256h-1049zM379 195q0 60 43 103.5t104 43.5t104.5 -43.5t43.5 -103.5q0 -61 -43 -104.5t-105 -43.5q-61 0 -104 43t-43 105zM379 866q0 60 43 104t104 44t104.5 -44t43.5 -104q0 -61 -43 -104t-105 -43t-104.5 42.5t-42.5 104.5z" />
<glyph unicode="&#xf8;" horiz-adv-x="1081" d="M25 55l110 117q-104 132 -104 303q0 139 70 256.5t188 185.5t254 68q148 0 278 -86l107 113l129 -127l-105 -111q99 -136 99 -299q0 -136 -69 -252t-186 -184t-253 -68q-150 0 -275 80l-114 -123zM330 475q0 -44 14 -82l274 291q-37 16 -75 16q-89 0 -151 -66t-62 -159z M471 266q35 -12 72 -12q88 0 148.5 65.5t60.5 155.5q0 37 -13 74z" />
<glyph unicode="&#xf9;" horiz-adv-x="901" d="M92 332v631h283v-639q0 -31 22.5 -53.5t53.5 -22.5t53 22.5t22 53.5v639h283v-631q0 -150 -104 -255.5t-254 -105.5q-149 0 -254 106t-105 255zM131 1346h287l196 -283h-188z" />
<glyph unicode="&#xfa;" horiz-adv-x="901" d="M92 332v631h283v-639q0 -31 22.5 -53.5t53.5 -22.5t53 22.5t22 53.5v639h283v-631q0 -150 -104 -255.5t-254 -105.5q-149 0 -254 106t-105 255zM285 1063l196 283h287l-295 -283h-188z" />
<glyph unicode="&#xfb;" horiz-adv-x="901" d="M92 332v631h283v-639q0 -31 22.5 -53.5t53.5 -22.5t53 22.5t22 53.5v639h283v-631q0 -150 -104 -255.5t-254 -105.5q-149 0 -254 106t-105 255zM215 1012v205l238 141l237 -141v-205l-237 137z" />
<glyph unicode="&#xfc;" horiz-adv-x="901" d="M92 332v631h283v-639q0 -31 22.5 -53.5t53.5 -22.5t53 22.5t22 53.5v639h283v-631q0 -150 -104 -255.5t-254 -105.5q-149 0 -254 106t-105 255zM119 1180q0 59 41 101t100 42q57 0 99 -42.5t42 -100.5q0 -60 -42 -102t-99 -42q-60 0 -100.5 42t-40.5 102zM510 1180 q0 59 41 101t100 42q57 0 99.5 -42.5t42.5 -100.5q0 -60 -42.5 -102t-99.5 -42q-60 0 -100.5 42t-40.5 102z" />
<glyph unicode="&#xfd;" horiz-adv-x="937" d="M6 963h324l139 -293l139 293h324l-322 -564v-399h-282v399zM344 1063l197 283h286l-295 -283h-188z" />
<glyph unicode="&#xfe;" horiz-adv-x="897" d="M102 0v963h283v-105h145q140 0 238 -99t98 -237q0 -142 -98 -246t-238 -104h-145v-172h-283zM385 440h113q32 0 53.5 22t21.5 54q0 31 -21.5 52.5t-53.5 21.5h-113v-150z" />
<glyph unicode="&#xff;" horiz-adv-x="937" d="M6 963h324l139 -293l139 293h324l-322 -564v-399h-282v399zM133 1180q0 59 41 101t100 42q57 0 99.5 -42.5t42.5 -100.5q0 -60 -42 -102t-100 -42q-60 0 -100.5 42t-40.5 102zM524 1180q0 59 41 101t101 42q57 0 99 -42.5t42 -100.5q0 -60 -42 -102t-99 -42 q-60 0 -101 42t-41 102z" />
<glyph unicode="&#x152;" horiz-adv-x="2041" d="M53 715q0 152 57.5 289.5t155.5 237t234 158t286 58.5q99 0 185 -24h962v-299h-540q62 -92 96 -205h418v-295h-391q-19 -188 -119 -334h547v-301h-967q-118 -27 -189 -27q-201 0 -370 99.5t-267 270t-98 372.5zM375 715q0 -182 121.5 -311.5t291.5 -129.5 q169 0 290.5 130t121.5 311t-122.5 311.5t-291.5 130.5q-170 0 -290.5 -130t-120.5 -312z" />
<glyph unicode="&#x153;" horiz-adv-x="1427" d="M31 475q0 139 70 256.5t188 185.5t254 68q75 0 149 -22h670v-263h-365q22 -43 33 -82h305v-245h-295q-10 -47 -39 -111h367v-262h-659q-82 -29 -166 -29q-136 0 -254 68t-188 184.5t-70 251.5zM330 475q0 -90 62 -155.5t151 -65.5q88 0 148.5 65.5t60.5 155.5 q0 93 -60.5 159t-148.5 66q-89 0 -151 -66t-62 -159z" />
<glyph unicode="&#x178;" horiz-adv-x="1224" d="M16 1434h340l256 -525l256 525h340l-442 -834v-600h-307v600zM276 1647q0 59 41 101t101 42q57 0 99 -42.5t42 -100.5q0 -60 -42 -102t-99 -42q-60 0 -101 42t-41 102zM668 1647q0 59 41 101t100 42q57 0 99 -42.5t42 -100.5q0 -60 -42 -102t-99 -42q-60 0 -100.5 42 t-40.5 102z" />
<glyph unicode="&#x2c6;" horiz-adv-x="741" d="M133 1012v205l238 141l237 -141v-205l-237 137z" />
<glyph unicode="&#x2dc;" horiz-adv-x="735" d="M35 1184q75 157 227 157q28 0 94 -18t97 -18q50 0 86 57l161 -100q-76 -158 -227 -158q-45 0 -103.5 18.5t-86.5 18.5q-50 0 -86 -58z" />
<glyph unicode="&#x2000;" horiz-adv-x="967" />
<glyph unicode="&#x2001;" horiz-adv-x="1935" />
<glyph unicode="&#x2002;" horiz-adv-x="967" />
<glyph unicode="&#x2003;" horiz-adv-x="1935" />
<glyph unicode="&#x2004;" horiz-adv-x="645" />
<glyph unicode="&#x2005;" horiz-adv-x="483" />
<glyph unicode="&#x2006;" horiz-adv-x="322" />
<glyph unicode="&#x2007;" horiz-adv-x="322" />
<glyph unicode="&#x2008;" horiz-adv-x="241" />
<glyph unicode="&#x2009;" horiz-adv-x="387" />
<glyph unicode="&#x200a;" horiz-adv-x="107" />
<glyph unicode="&#x2010;" horiz-adv-x="759" d="M84 336v256h592v-256h-592z" />
<glyph unicode="&#x2011;" horiz-adv-x="759" d="M84 336v256h592v-256h-592z" />
<glyph unicode="&#x2012;" horiz-adv-x="759" d="M84 336v256h592v-256h-592z" />
<glyph unicode="&#x2013;" horiz-adv-x="1310" d="M154 369v204h1003v-204h-1003z" />
<glyph unicode="&#x2014;" horiz-adv-x="2316" d="M154 369v204h2007v-204h-2007z" />
<glyph unicode="&#x2018;" horiz-adv-x="536" d="M37 1434h323l140 -498h-174z" />
<glyph unicode="&#x2019;" horiz-adv-x="538" d="M37 936l139 498h324l-289 -498h-174z" />
<glyph unicode="&#x201a;" horiz-adv-x="538" d="M37 -233l139 497h324l-289 -497h-174z" />
<glyph unicode="&#x201c;" d="M37 1434h323l140 -498h-174zM430 1434h324l139 -498h-174z" />
<glyph unicode="&#x201d;" d="M37 936l139 498h324l-289 -498h-174zM430 936l139 498h324l-289 -498h-174z" />
<glyph unicode="&#x201e;" d="M37 -233l139 497h324l-289 -497h-174zM430 -233l139 497h324l-289 -497h-174z" />
<glyph unicode="&#x2022;" horiz-adv-x="790" d="M102 524q0 122 86 207.5t207 85.5t207 -85.5t86 -207.5t-86 -207.5t-207 -85.5t-207 85.5t-86 207.5z" />
<glyph unicode="&#x202f;" horiz-adv-x="387" />
<glyph unicode="&#x2039;" horiz-adv-x="690" d="M57 514l318 424h258l-314 -424l314 -424h-258z" />
<glyph unicode="&#x203a;" horiz-adv-x="690" d="M57 90l314 424l-314 424h258l318 -424l-318 -424h-258z" />
<glyph unicode="&#x205f;" horiz-adv-x="483" />
<glyph unicode="&#x20ac;" horiz-adv-x="1165" d="M-31 442v230h84v43v2h-84v229h119q73 226 264 369t434 143q150 0 291 -59v-357q-118 115 -291 115q-108 0 -201.5 -57.5t-148.5 -153.5h381v-229h-442v-2q0 -29 2 -43h440v-230h-354q58 -78 142.5 -123t180.5 -45q173 0 291 115v-356q-143 -60 -291 -60q-231 0 -416 130 t-266 339h-135z" />
<glyph unicode="&#x2122;" horiz-adv-x="1052" d="M68 1358v78h331v-78h-120v-420h-89v420h-122zM434 938l94 506l181 -344l180 344l94 -506h-84l-47 274l-143 -282l-144 282l-47 -274h-84z" />
<glyph unicode="&#xe000;" horiz-adv-x="962" d="M0 0v963h963v-963h-963z" />
</font>
</defs>
</svg>
